<?xml version="1.0" encoding="utf-8"?>
<!-- Generator: Adobe Illustrator 26.0.3, SVG Export Plug-In . SVG Version: 6.00 Build 0)  -->
<svg version="1.1" id="Layer_1" xmlns="http://www.w3.org/2000/svg" xmlns:xlink="http://www.w3.org/1999/xlink" x="0px" y="0px"
	 viewBox="0 0 485.4 485.4" style="enable-background:new 0 0 485.4 485.4;" xml:space="preserve">
<style type="text/css">
	.st0{fill:#FFFFFF;}
</style>
<path class="st0" d="M458.7,385.4h-13.4v-17.8c0-27.2-10.8-53.2-30-72.4l0,0v-75.6c0-78.3-52.9-146.5-127.5-166.6v-7.3
	c0-23.4-19.1-44.4-42.5-45.7c-25.9-1.4-47.5,19.3-47.5,44.9v8.1C123.1,73.2,70.2,141.3,70.2,219.6v75.6l0,0
	c-19.2,19.2-30,45.3-30,72.4v17.8H26.8c-6.4,0-11.6,5.2-11.6,11.6v6.9c0,6.4,5.2,11.6,11.6,11.6h132.3c7.1,39.7,41.9,70,83.6,70
	s76.5-30.3,83.6-70h132.3c6.4,0,11.6-5.2,11.6-11.6l0-6.9C470.2,390.6,465,385.4,458.7,385.4z M95.7,312.5c2.9-3.3,4.5-7.5,4.5-11.9
	l0-81c0-68.2,48.5-127,115.3-139.9l1-0.2c6.5-1.3,11.2-6.9,11.2-13.5l0-20.6c0-7.7,5.6-14.4,13.3-15.3c9-1,16.7,6.1,16.7,14.9v21
	c0,6.6,4.7,12.3,11.2,13.5l1,0.2c66.8,12.9,115.3,71.7,115.3,139.9l0,81c0,4.4,1.6,8.6,4.5,11.9c16.4,18.6,25.5,42.7,25.5,67.6v5.4
	h-345v-5.4C70.2,355.1,79.3,331.1,95.7,312.5z M242.7,455.4c-25.1,0-46.4-16.9-52.9-40h105.8C289.1,438.5,267.9,455.4,242.7,455.4z"
	/>
</svg>
